<svg width="16" height="9" viewBox="0 0 16 9" fill="none" xmlns="http://www.w3.org/2000/svg">
<path d="M15.8074 6.86053L10.3608 1.41386C10.0511 1.10344 9.6833 0.857155 9.27833 0.689112C8.87337 0.521069 8.43922 0.43457 8.00078 0.43457C7.56233 0.43457 7.12819 0.521069 6.72322 0.689112C6.31825 0.857155 5.95041 1.10344 5.64078 1.41386L0.194108 6.86053C0.0685721 6.98607 -0.00195312 7.15633 -0.00195312 7.33386C-0.00195313 7.5114 0.0685721 7.68166 0.194108 7.8072C0.319644 7.93273 0.489907 8.00326 0.667441 8.00326C0.844976 8.00326 1.01524 7.93273 1.14077 7.8072L6.58744 2.36053C6.96244 1.98599 7.47077 1.77562 8.00078 1.77562C8.53078 1.77562 9.03911 1.98599 9.41411 2.36053L14.8608 7.8072C14.9228 7.86968 14.9965 7.91928 15.0777 7.95312C15.159 7.98697 15.2461 8.00439 15.3341 8.00439C15.4221 8.00439 15.5093 7.98697 15.5905 7.95312C15.6717 7.91928 15.7455 7.86968 15.8074 7.8072C15.8699 7.74522 15.9195 7.67149 15.9534 7.59025C15.9872 7.50901 16.0046 7.42187 16.0046 7.33386C16.0046 7.24585 15.9872 7.15872 15.9534 7.07748C15.9195 6.99624 15.8699 6.9225 15.8074 6.86053Z" fill="#113ACA"/>
</svg>
