<svg width="19" height="14" viewBox="0 0 19 14" fill="none" xmlns="http://www.w3.org/2000/svg">
<path d="M0.26127 8.90543L3.73294 12.3771C4.20176 12.8458 4.83753 13.1091 5.50044 13.1091C6.16335 13.1091 6.79912 12.8458 7.26794 12.3771L17.9896 1.65542C18.1414 1.49826 18.2254 1.28775 18.2235 1.06926C18.2216 0.850759 18.134 0.641748 17.9795 0.487242C17.8249 0.332735 17.6159 0.245094 17.3974 0.243196C17.1789 0.241297 16.9684 0.325292 16.8113 0.477091L6.0896 11.1988C5.93333 11.355 5.72141 11.4427 5.50044 11.4427C5.27947 11.4427 5.06754 11.355 4.91127 11.1988L1.4396 7.72709C1.28244 7.57529 1.07193 7.4913 0.853436 7.4932C0.634939 7.49509 0.425928 7.58274 0.271421 7.73724C0.116915 7.89175 0.0292739 8.10076 0.0273753 8.31926C0.0254766 8.53775 0.109472 8.74826 0.26127 8.90543Z" fill="#17BC77"/>
</svg>
